<svg width="20" height="20" viewBox="0 0 20 20" fill="none" xmlns="http://www.w3.org/2000/svg">
<path d="M16.6667 14.1667C17.2222 14.1667 17.5 14.4445 17.5 15C17.5 15.5556 17.2222 15.8334 16.6667 15.8334H3.33333C2.77778 15.8334 2.5 15.5556 2.5 15C2.5 14.4445 2.77778 14.1667 3.33333 14.1667H16.6667Z" fill="#8E97A5"/>
<path d="M5.6486 7.51548C5.6776 7.52862 5.70287 7.54982 5.72021 7.57652C5.73756 7.60326 5.74689 7.63498 5.74707 7.66685V12.7661C5.74684 12.7978 5.73745 12.829 5.72021 12.8557C5.70287 12.8824 5.67763 12.9035 5.6486 12.9167C5.61961 12.9298 5.58731 12.9343 5.55583 12.9297C5.52441 12.9251 5.4952 12.9114 5.47119 12.8906L2.55697 10.3418V10.3402C2.53923 10.3245 2.52438 10.3048 2.51465 10.2832C2.50504 10.2618 2.5 10.2384 2.5 10.2149C2.50002 10.1913 2.505 10.168 2.51465 10.1465C2.52438 10.125 2.53924 10.106 2.55697 10.0904L5.47119 7.54152C5.49518 7.52082 5.52447 7.50705 5.55583 7.50246C5.58727 7.49789 5.61964 7.50242 5.6486 7.51548Z" fill="#8E97A5"/>
<path d="M16.6667 9.16669C17.2222 9.16669 17.5 9.44447 17.5 10C17.5 10.5556 17.2222 10.8334 16.6667 10.8334H8.33333C7.77778 10.8334 7.5 10.5556 7.5 10C7.5 9.44447 7.77778 9.16669 8.33333 9.16669H16.6667Z" fill="#8E97A5"/>
<path d="M16.6667 4.16669C17.2222 4.16669 17.5 4.44446 17.5 5.00002C17.5 5.55558 17.2222 5.83335 16.6667 5.83335H3.33333C2.77778 5.83335 2.5 5.55558 2.5 5.00002C2.5 4.44446 2.77778 4.16669 3.33333 4.16669H16.6667Z" fill="#8E97A5"/>
</svg>
